Coordinates
version=1
nRows=14
nColumns=40
inDegrees=yes

Units are S.I. units (second, meters, Newtons, ...)
Angles are in degrees.

endheader
time	pelvis_tilt	pelvis_list	pelvis_rotation	pelvis_tx	pelvis_ty	pelvis_tz	hip_flexion_r	hip_adduction_r	hip_rotation_r	knee_angle_r	knee_angle_r_beta	ankle_angle_r	subtalar_angle_r	mtp_angle_r	hip_flexion_l	hip_adduction_l	hip_rotation_l	knee_angle_l	knee_angle_l_beta	ankle_angle_l	subtalar_angle_l	mtp_angle_l	lumbar_extension	lumbar_bending	lumbar_rotation	arm_flex_r	arm_add_r	arm_rot_r	elbow_flex_r	pro_sup_r	wrist_flex_r	wrist_dev_r	arm_flex_l	arm_add_l	arm_rot_l	elbow_flex_l	pro_sup_l	wrist_flex_l	wrist_dev_l
     17.69000000	     -3.74799606	     -2.91992776	     -2.77921622	      0.84257415	      0.93343594	      0.42230506	     34.33963206	     -2.80608068	     -5.15606224	     58.08369098	     58.08369098	      2.74883932	    -16.79776511	      5.01111909	     11.69803150	     -2.93675523	     -7.13281426	     19.30589583	     19.30589583	     13.21751264	    -14.62550527	      0.73350833	     -9.44711873	      5.86952910	      3.33585912	     -0.88059171	    -11.02253580	     -4.99279167	     24.14325439	     46.69780827	      0.00000000	      0.00000000	     17.03656261	    -14.41337848	      2.76207263	     56.70136747	     45.91454426	      0.00000000	      0.00000000
     17.70200000	     -3.76792246	     -3.04532074	     -3.01030220	      0.84202718	      0.93368863	      0.42235690	     34.51763425	     -2.48455403	     -5.41824316	     54.86356389	     54.86356389	      2.95925600	    -16.02107221	      4.58427385	     10.95305706	     -3.03531550	     -7.32092214	     18.82170099	     18.82170099	     13.44441592	    -14.48718014	      0.57492868	     -9.56550199	      6.14890286	      3.34029878	     -2.14120358	    -11.10175824	     -5.13247516	     23.37086514	     46.73468925	      0.00000000	      0.00000000	     17.75444345	    -14.42072121	      1.97087717	     58.54429547	     46.02229880	      0.00000000	      0.00000000
     17.71400000	     -3.85234301	     -3.07704561	     -3.22358480	      0.84150040	      0.93366416	      0.42249870	     34.62206882	     -2.27922889	     -5.70612497	     51.37364352	     51.37364352	      2.93370990	    -15.02468515	      3.47451173	     10.27530394	     -3.04591732	     -7.55374974	     18.31846561	     18.31846561	     13.60931716	    -14.28232251	      0.21557165	     -9.65093191	      6.26418236	      3.29472403	     -3.38882746	    -11.10849771	     -5.40804252	     22.72297202	     46.78107085	      0.00000000	      0.00000000	     18.13669493	    -14.39823180	      0.65083218	     61.26576420	     46.19149808	      0.00000000	      0.00000000
     17.72600000	     -4.10753337	     -3.19539243	     -3.36443856	      0.84093567	      0.93330455	      0.42275664	     34.75963277	     -1.95976362	     -6.05124144	     47.67998892	     47.67998892	      3.19736905	    -13.79214891	      3.50895915	      9.90180770	     -3.16682938	     -7.64591466	     18.02978645	     18.02978645	     13.88223628	    -14.17778269	      0.08010350	     -9.42087435	      6.52108310	      2.99140574	     -4.50546732	    -11.15786759	     -5.46799880	     22.34081850	     46.79305415	      0.00000000	      0.00000000	     18.89228594	    -14.66886710	      0.24749358	     62.14242691	     46.24437024	      0.00000000	      0.00000000
     17.73800000	     -4.07424428	     -3.24444565	     -3.53365379	      0.84077388	      0.93316005	      0.42306003	     34.28780739	     -1.75056594	     -6.47814157	     43.54955724	     43.54955724	      2.62323604	    -12.45539497	      0.54869750	      9.10425245	     -3.20687623	     -7.91028990	     17.57979349	     17.57979349	     13.92427341	    -13.98052743	     -0.77587864	     -9.65545964	      6.63033859	      2.49430202	     -5.48388765	    -11.30048663	     -6.07300434	     22.38946540	     46.84745210	      0.00000000	      0.00000000	     18.43037762	    -14.49952153	     -2.23330803	     66.07474331	     46.55116578	      0.00000000	      0.00000000
     17.75000000	     -4.21439929	     -3.31899450	     -3.65141766	      0.84054462	      0.93270266	      0.42356120	     33.95850443	     -1.45302338	     -6.88961716	     39.50609560	     39.50609560	      2.92323585	    -10.73279177	      0.70289483	      8.58251766	     -3.28423668	     -7.99076166	     17.28403339	     17.28403339	     14.20778360	    -13.85488707	     -0.92176865	     -9.56170952	      6.77642836	      2.50640842	     -6.62354588	    -11.38842480	     -6.09769078	     21.93962579	     46.85918726	      0.00000000	      0.00000000	     19.29659004	    -14.45820768	     -2.49371603	     67.00850788	     46.59781928	      0.00000000	      0.00000000
     17.76200000	     -4.20948157	     -3.27126452	     -3.79040768	      0.84068857	      0.93223509	      0.42410257	     33.35446160	     -1.34921861	     -7.46494756	     35.49406350	     35.49406350	      3.25945541	     -8.37625359	      0.51065446	      7.84037544	     -3.23897291	     -8.29915043	     16.92076445	     16.92076445	     14.48214541	    -13.47425358	     -1.27681299	     -9.66059562	      6.76055224	      2.73558334	     -7.88137773	    -11.46268559	     -6.24107461	     21.85662396	     46.86428331	      0.00000000	      0.00000000	     19.98183580	    -14.20353842	     -3.08280703	     68.78090904	     46.69066182	      0.00000000	      0.00000000
     17.77400000	     -4.26450590	     -3.31029599	     -3.88557234	      0.84097863	      0.93159402	      0.42485889	     32.66789478	     -1.04975117	     -7.97122156	     31.47735183	     31.47735183	      3.48702491	     -6.41123372	      0.84751429	      7.21165920	     -3.29430808	     -8.45006268	     16.66932188	     16.66932188	     14.77524881	    -13.28355357	     -1.57048766	     -9.62449235	      6.83213138	      2.68642339	     -8.91707862	    -11.56947174	     -6.36560936	     21.82741103	     46.86640122	      0.00000000	      0.00000000	     20.53156910	    -14.14344213	     -3.49199430	     70.01281869	     46.75448134	      0.00000000	      0.00000000
     17.78600000	     -4.39684298	     -3.27774667	     -4.00952559	      0.84141053	      0.93068939	      0.42584414	     32.02146075	     -0.76225342	     -8.45654720	     27.67986726	     27.67986726	      3.63102102	     -4.58099944	      1.43211773	      6.65101076	     -3.28988180	     -8.61868831	     16.40142698	     16.40142698	     15.05800673	    -13.10732891	     -1.82031996	     -9.45706993	      6.79894259	      2.65026330	     -9.84485678	    -11.58435549	     -6.45899748	     21.78449049	     46.86663644	      0.00000000	      0.00000000	     21.04682519	    -14.08296013	     -3.79371868	     71.05750553	     46.80336805	      0.00000000	      0.00000000
     17.79800000	     -4.34429690	     -3.24706060	     -4.09394069	      0.84222722	      0.92989090	      0.42689097	     31.14766257	     -0.53038640	     -9.15574505	     24.27760694	     24.27760694	      3.83653347	     -2.57326235	      2.18368506	      5.84770711	     -3.27839326	     -8.82845527	     16.10337956	     16.10337956	     15.37964081	    -12.81398116	     -2.14742599	     -9.49312405	      6.73444104	      2.68413752	    -10.78464613	    -11.67091341	     -6.60300386	     21.88504784	     46.86458100	      0.00000000	      0.00000000	     21.46381028	    -13.92498363	     -4.13987604	     72.31458722	     46.86008823	      0.00000000	      0.00000000
     17.81000000	     -4.31200794	     -3.17207707	     -4.18609603	      0.84322951	      0.92887967	      0.42810982	     30.38140156	     -0.33410057	     -9.86889999	     21.45694504	     21.45694504	      4.04858481	     -0.76993399	      3.11791703	      5.05476140	     -3.23017457	     -9.04733121	     15.80996266	     15.80996266	     15.70869276	    -12.49684340	     -2.48480919	     -9.46598608	      6.62148201	      2.66673908	    -11.60861364	    -11.70760456	     -6.77396589	     22.12267755	     46.85929699	      0.00000000	      0.00000000	     21.77492311	    -13.81057224	     -4.47104072	     73.52242241	     46.91560428	      0.00000000	      0.00000000
     17.82200000	     -4.37007720	     -3.08617341	     -4.28634499	      0.84435322	      0.92766397	      0.42959641	     29.76796996	     -0.10483042	    -10.49802189	     19.18370749	     19.18370749	      4.16814509	      0.57086535	      4.02144852	      4.36688562	     -3.18943718	     -9.26281330	     15.54101372	     15.54101372	     16.04129480	    -12.24209308	     -2.72653530	     -9.30820342	      6.46426588	      2.64930137	    -12.22074697	    -11.65728115	     -6.90612911	     22.34923757	     46.85292206	      0.00000000	      0.00000000	     22.04022277	    -13.73118234	     -4.68864941	     74.45812620	     46.95535036	      0.00000000	      0.00000000
     17.83400000	     -4.28588147	     -3.00992748	     -4.36588993	      0.84574010	      0.92652427	      0.43112572	     29.17004080	      0.01572466	    -11.40435951	     17.75626914	     17.75626914	      4.63537001	      2.12588393	      5.58881608	      3.47613224	     -3.16344766	     -9.59366158	     15.21493965	     15.21493965	     16.45919759	    -11.73295233	     -3.02763049	     -9.32717586	      6.31867653	      2.57341265	    -12.90489371	    -11.67945783	     -7.27508532	     23.14209884	     46.83848686	      0.00000000	      0.00000000	     22.03058219	    -13.67555265	     -5.06926230	     75.93446030	     47.03064817	      0.00000000	      0.00000000
     17.84600000	     -4.32453556	     -3.03751050	     -4.40825842	      0.84721868	      0.92517265	      0.43288617	     28.67063470	      0.32942196	    -11.91437786	     16.65965780	     16.65965780	      4.66005769	      2.65597862	      6.28977899	      2.77710755	     -3.25417734	     -9.65576141	     15.02522224	     15.02522224	     16.91644690	    -11.55252841	     -3.07506146	     -9.13852602	      6.28995850	      2.50607650	    -13.29271609	    -11.71062379	     -7.42749892	     23.32245590	     46.83734532	      0.00000000	      0.00000000	     22.13557082	    -13.59788267	     -5.13007519	     76.48639985	     47.05862393	      0.00000000	      0.00000000
